Coordinates
version=1
nRows=17
nColumns=36
inDegrees=yes

Units are S.I. units (second, meters, Newtons, ...)
If the header above contains a line with 'inDegrees', this indicates whether rotational values are in degrees (yes) or radians (no).

endheader
time	pelvis_tilt	pelvis_list	pelvis_rotation	pelvis_tx	pelvis_ty	pelvis_tz	hip_flexion_r	hip_adduction_r	hip_rotation_r	knee_angle_r	knee_angle_r_beta	ankle_angle_r	subtalar_angle_r	mtp_angle_r	hip_flexion_l	hip_adduction_l	hip_rotation_l	knee_angle_l	knee_angle_l_beta	ankle_angle_l	subtalar_angle_l	mtp_angle_l	lumbar_extension	lumbar_bending	lumbar_rotation	arm_flex_r	arm_add_r	arm_rot_r	elbow_flex_r	pro_sup_r	arm_flex_l	arm_add_l	arm_rot_l	elbow_flex_l	pro_sup_l
      1.78333330	     -3.84471338	      2.61738171	      1.45753258	     -0.07183378	      1.26133997	      0.03477407	     -0.25263858	     -3.01814312	      0.01870466	      0.52700134	      0.00919791	     12.54453443	     -1.48638131	     -7.49999987	      2.26616272	     -0.36353973	      2.09127809	      1.26099171	      0.02200846	      9.22577819	      1.27747201	     -7.49999987	      2.26617504	      0.64055751	     -3.50321164	      0.81539338	     -8.60531804	     25.43894543	     36.48070569	     63.21426218	     -4.06312296	    -21.96705891	     24.16585767	     47.55876436	     68.46529042
      1.80000000	     -3.35438047	      2.54045068	      1.79562156	     -0.07491712	      1.26026291	      0.03389081	     -0.66994313	     -2.83956640	     -1.02947435	      0.43206663	      0.00754099	     12.94711017	     -0.08354429	     -7.49999987	      1.78910871	     -0.46623596	      2.03131857	      1.12799357	      0.01968720	      8.95808453	      1.74410532	     -7.49999987	      1.57479562	      0.64443028	     -3.15835685	      1.57964688	     -9.37069163	     28.32895049	     35.46743221	     64.93729908	     -3.34257194	    -23.29634513	     26.62876440	     47.71766990	     71.32385912
      1.81666670	     -3.52252898	      2.50146804	      2.14062527	     -0.07665683	      1.25677134	      0.03323208	     -0.33066501	     -2.74649521	     -1.32132128	      0.38391448	      0.00670057	     12.54020320	     -0.51052664	     -7.49999987	      2.09606494	     -0.47123544	      2.12345527	      1.09979917	      0.01919512	      8.62258480	      1.66257184	     -7.49999987	      1.72946665	      0.63066803	     -3.24983756	      2.06607244	     -9.38821143	     27.98018296	     34.12724206	     69.45839656	     -3.47309565	    -23.22678736	     24.21785433	     46.40636052	     80.32498953
      1.83333330	     -3.63616319	      2.46740346	      2.32267236	     -0.07432879	      1.25536913	      0.03370941	     -0.03255558	     -2.65161213	     -1.56456751	      0.36483088	      0.00636750	     12.62871836	     -0.63338801	     -7.49999987	      2.34964894	     -0.49579393	      2.08562899	      1.18362346	      0.02065813	      8.70725311	      1.74209772	     -7.49999987	      1.75864763	      0.64412496	     -2.95792392	      2.13603361	     -9.76954240	     27.87031807	     34.02728570	     69.36106767	     -3.58792793	    -23.63099473	     24.05790072	     46.23724136	     80.10996984
      1.85000000	     -3.30822749	      2.43225089	      2.57125011	     -0.07147325	      1.25991510	      0.03422080	     -0.29336043	     -2.55202488	     -1.94788527	      0.33598682	      0.00586408	     12.47984423	     -0.58984090	     -7.49999987	      2.08966764	     -0.56585977	      2.11771869	      1.17310772	      0.02047459	      8.54605010	      2.08182483	     -7.49999987	      1.36368561	      0.65424483	     -2.90731629	      2.84484320	     -9.46643167	     27.56512785	     31.75274106	     69.23003250	     -2.97930365	    -23.24922862	     23.61556351	     43.93472137	     79.81379604
      1.86666670	     -3.24217836	      2.41026955	      2.76823323	     -0.07063724	      1.26323249	      0.03443970	     -0.41851662	     -2.46674487	     -2.18411669	      0.33202760	      0.00579497	     12.47932667	     -0.53773857	     -7.49999987	      2.09751432	     -0.61254791	      2.19233387	      1.18915404	      0.02075465	      8.54423292	      2.43256974	     -7.49999987	      1.28667806	      0.64048158	     -2.84139125	      3.08122922	     -9.45231076	     27.32849998	     30.61439284	     68.56303609	     -2.84201068	    -23.02281863	     23.41611839	     42.54015421	     78.37783416
      1.88333330	     -2.93215262	      2.41415183	      2.89031569	     -0.06995021	      1.26282491	      0.03407369	     -0.87732687	     -2.40268109	     -2.28914792	      0.34414443	      0.00600645	     12.62072560	     -0.49499698	     -7.49999987	      1.81079562	     -0.63196673	      2.21293167	      1.23965127	      0.02163600	      8.87892087	      2.71037375	     -7.49999987	      0.94662279	      0.66888252	     -2.63245227	      3.44924883	     -9.22143838	     27.05332054	     28.85321439	     67.03520908	     -2.54689511	    -22.44877986	     23.27121742	     40.55554979	     75.28187168
      1.90000000	     -2.66307238	      2.44785928	      3.13835647	     -0.07239472	      1.26625974	      0.03429794	     -1.27683400	     -2.38391129	     -2.77977591	      0.34433323	      0.00600975	     12.46328960	     -0.39917326	     -7.49999987	      1.56985864	     -0.62805101	      2.26100840	      1.20085005	      0.02095879	      8.74617651	      2.82254518	     -7.49999987	      0.62717729	      0.60183080	     -2.52745188	      3.73599929	     -9.06129384	     27.34113463	     27.27404611	     66.81597151	     -2.13537199	    -21.86922954	     23.39735344	     38.65592649	     74.73311574
      1.91666670	     -2.48540418	      2.49357521	      3.29970781	     -0.07134278	      1.26690171	      0.03514676	     -1.46595671	     -2.39822562	     -2.80389617	      0.34097616	      0.00595116	     12.39579860	     -0.48623236	     -7.49999987	      1.38394111	     -0.60351275	      2.24956799	      1.23567220	      0.02156655	      8.55180929	      2.86629644	     -7.49999987	      0.44151019	      0.52121169	     -2.38970575	      3.96533054	     -8.94080321	     27.77772404	     25.90843085	     66.05677425	     -1.72768679	    -21.20524044	     23.70898827	     36.74689463	     73.29172215
      1.93333330	     -2.09064850	      2.51362268	      3.62680482	     -0.07013792	      1.27118766	      0.03556834	     -1.95327676	     -2.35469718	     -3.16001377	      0.32954454	      0.00575164	     12.22274268	     -0.44984087	     -7.49999987	      0.95760993	     -0.64233551	      2.31199320	      1.26200071	      0.02202607	      8.20379056	      3.03241536	     -7.49999987	     -0.03063903	      0.44726551	     -2.48992454	      4.20715855	     -8.61356910	     27.64041561	     24.63883343	     65.93533908	     -1.40285860	    -20.39863545	     23.47348684	     34.96168419	     73.18541370
      1.95000000	     -1.65632303	      2.52768887	      3.71119638	     -0.07038247	      1.27570871	      0.03460430	     -2.50463743	     -2.30549694	     -3.39803068	      0.33504389	      0.00584762	     12.02246989	     -0.39307854	     -7.49999987	      0.49130451	     -0.65734652	      2.30283836	      1.23664427	      0.02158351	      8.07994329	      3.35595535	     -7.49999987	     -0.67329502	      0.44579869	     -2.46088965	      4.51333764	     -8.37445409	     27.43922859	     23.49779433	     65.57406202	     -0.89838107	    -19.43256440	     23.26827928	     33.13352946	     72.63785108
      1.96666670	     -1.24806663	      2.56139757	      3.90474732	     -0.06881540	      1.27490451	      0.03531564	     -3.03999047	     -2.23093263	     -3.64256042	      0.33381771	      0.00582622	     11.92189676	     -0.33111605	     -7.49999987	      0.06994552	     -0.65531335	      2.35411197	      1.24539219	      0.02173619	      7.94514159	      3.63306053	     -7.49999987	     -1.14959115	      0.36771853	     -2.43050579	      4.64910052	     -8.07656532	     27.45013775	     22.41081133	     64.78898675	     -0.37646937	    -18.47531413	     23.60719867	     31.27356969	     71.37144799
      1.98333330	     -0.74355206	      2.62888982	      4.06889624	     -0.07118440	      1.27861096	      0.03539900	     -3.69792722	     -2.19920929	     -3.82253099	      0.33445918	      0.00583741	     11.70156945	     -0.37496076	     -7.49999987	     -0.43327735	     -0.62467768	      2.38803597	      1.24807650	      0.02178304	      7.76225486	      3.82377968	     -7.49999987	     -1.92281956	      0.26117949	     -2.49574858	      4.91774285	     -7.80547363	     27.41310988	     21.68505408	     64.72576175	      0.11755978	    -17.51934085	     23.47040373	     29.92911676	     71.30742034
      2.00000000	     -0.34136952	      2.67641980	      4.14560754	     -0.07376489	      1.27750615	      0.03400152	     -4.12135250	     -2.20690794	     -4.25867779	      0.34509868	      0.00602311	     11.55769617	     -0.11944113	     -7.49999987	     -0.82015919	     -0.55641003	      2.34878498	      1.18060178	      0.02060539	      7.73174063	      4.11481894	     -7.49999987	     -2.60693364	      0.22917392	     -2.46161907	      5.12667484	     -7.60193680	     27.18636314	     21.11595936	     64.39564621	      0.67738447	    -16.46522118	     23.42106636	     28.59967720	     70.73894561
      2.01666670	     -0.21528952	      2.68611946	      4.27843976	     -0.07995375	      1.27844848	      0.03235798	     -4.14666386	     -2.21392110	     -4.17943905	      0.36057494	      0.00629322	     10.88520317	     -0.84067193	     -7.49999987	     -0.88544724	     -0.49675878	      2.27775652	      1.07795178	      0.01881381	      7.57204108	      4.45003336	     -7.49999987	     -3.06760773	      0.25918937	     -2.65482435	      5.54726695	     -7.32652670	     26.58682345	     20.64351129	     63.78665651	      1.09099855	    -15.36852367	     23.07697006	     27.64073585	     69.54924728
      2.03333330	      0.37016726	      2.75604266	      4.44390187	     -0.08083580	      1.27924257	      0.03246598	     -4.67408282	     -2.26229624	     -4.67394021	      0.36880189	      0.00643681	     10.73169911	     -0.56932175	     -7.49999987	     -1.36461545	     -0.39951546	      2.57434748	      1.01459993	      0.01770811	      7.76529498	      4.49463630	     -7.49999987	     -4.24071604	      0.22748725	     -2.57549953	      5.96581977	     -7.33634091	     27.06414789	     20.55978839	     64.10823559	      2.06287506	    -14.38156143	     23.70919576	     26.58979693	     69.67798507
      2.05000000	      0.56353353	      2.78130927	      4.67307708	     -0.07880360	      1.27789436	      0.03498310	     -4.77536956	     -2.22724782	     -4.76419668	      0.38791328	      0.00677036	     10.71585295	     -0.74837409	     -7.49999987	     -1.48722489	     -0.39620272	      2.81660365	      1.05525783	      0.01841772	      7.86479830	      4.54396629	     -7.49999987	     -4.79390988	      0.15419865	     -2.74560922	      6.12557024	     -7.09790260	     27.04107768	     20.51139710	     64.16812013	      2.34804583	    -13.59211749	     23.67349792	     26.39943532	     69.74419370
